<?xml version="1.0" standalone="no"?>
<!DOCTYPE svg PUBLIC "-//W3C//DTD SVG 20010904//EN"
 "http://www.w3.org/TR/2001/REC-SVG-20010904/DTD/svg10.dtd">
<svg version="1.0" xmlns="http://www.w3.org/2000/svg"
 width="300.000000pt" height="300.000000pt" viewBox="0 0 300.000000 300.000000"
 preserveAspectRatio="xMidYMid meet">
<metadata>
Created by potrace 1.10, written by Peter Selinger 2001-2011
</metadata>
<g transform="translate(0.000000,300.000000) scale(0.100000,-0.100000)"
fill="#000000" stroke="none">
<path d="M930 2079 l0 -56 -55 5 -55 4 0 -56 0 -56 55 0 55 0 0 -56 0 -56 50
4 50 3 0 -52 0 -53 55 0 55 0 0 -55 0 -55 50 0 50 0 0 105 0 105 -50 0 -50 0
0 55 0 55 50 0 c50 0 50 0 50 33 0 17 3 42 6 55 6 21 4 22 -50 22 l-56 0 0 53
0 52 -105 0 -105 0 0 -56z m150 1 c0 -5 -9 -10 -19 -10 -11 0 -31 -14 -46 -32
-23 -27 -26 -39 -22 -76 6 -52 22 -72 68 -81 27 -5 34 -12 40 -39 9 -42 25
-60 63 -70 30 -8 31 -11 34 -66 2 -39 0 -56 -7 -51 -6 3 -11 14 -11 24 0 27
-46 71 -74 71 -20 0 -27 8 -38 43 -11 36 -19 44 -55 57 -24 8 -43 20 -43 28 0
31 -32 73 -61 79 -34 7 -49 23 -21 23 32 0 71 38 78 75 6 35 7 35 60 35 30 0
54 -4 54 -10z m60 -105 l0 -55 -55 0 -55 0 0 55 0 55 55 0 55 0 0 -55z"/>
<path d="M1874 2131 c-2 -2 -4 -26 -4 -53 l0 -48 -50 0 -50 0 0 -55 0 -55 -55
0 -55 0 0 -55 0 -55 -56 0 c-54 0 -56 -1 -50 -22 3 -13 6 -35 6 -50 0 -27 2
-28 50 -28 l50 0 0 50 0 50 55 0 55 0 0 -105 0 -105 -55 0 -55 0 0 -56 c0 -54
1 -56 23 -50 12 3 37 6 55 6 32 0 32 0 32 50 l0 50 53 0 54 0 -5 55 -4 55 56
0 56 0 0 53 0 54 56 -5 56 -5 -3 57 -4 56 55 0 55 0 -3 56 -4 55 -51 -2 -50
-3 -1 53 -1 52 -103 2 c-57 1 -106 0 -108 -2z m176 -80 c12 -44 23 -56 62 -66
30 -8 29 -25 -1 -25 -23 0 -57 -38 -65 -72 -4 -19 -14 -28 -35 -33 -35 -7 -59
-33 -70 -71 -5 -21 -14 -30 -34 -32 -30 -4 -77 -54 -77 -83 0 -11 -4 -17 -10
-14 -5 3 -10 29 -10 56 0 39 4 51 18 55 57 17 76 36 87 87 4 21 11 27 32 27
45 0 73 36 73 92 0 39 -5 54 -25 73 -13 14 -33 25 -45 25 -11 0 -20 5 -20 10
0 6 25 10 55 10 l54 0 11 -39z m-70 -76 l0 -55 -56 0 -57 0 7 -55 6 -55 -55 0
-55 0 0 55 0 55 50 0 50 0 0 55 0 55 55 0 55 0 0 -55z"/>
<path d="M1250 1865 l0 -55 50 0 50 0 0 -50 0 -50 55 0 55 0 0 -55 0 -55 51 0
c48 0 51 1 45 23 -3 12 -6 37 -6 55 0 31 -1 32 -45 32 l-45 0 0 53 0 52 -55
-3 -55 -4 0 56 0 56 -50 0 -50 0 0 -55z"/>
<path d="M1250 1550 c0 -48 1 -50 28 -50 15 0 37 -3 50 -6 21 -6 22 -4 22 50
l0 56 -50 0 -50 0 0 -50z"/>
<path d="M1140 1445 l0 -55 -55 0 -55 0 0 -55 0 -55 -52 0 -53 0 4 -56 3 -57
-56 7 -56 6 0 -85 0 -85 56 0 56 0 -4 -55 -3 -55 108 0 107 0 0 85 0 85 56 0
c54 0 56 1 50 23 -3 12 -6 34 -6 50 0 26 -2 27 -50 27 l-50 0 0 -50 0 -50 -55
0 -55 0 0 55 0 55 55 0 55 0 0 105 0 105 54 0 54 0 -6 48 c-2 26 -5 47 -6 48
0 1 -22 4 -48 7 l-48 7 0 -55z m-40 -162 c0 -45 -9 -63 -32 -63 -32 0 -78 -54
-78 -92 0 -46 34 -98 63 -98 29 0 47 -18 47 -45 0 -31 -19 -45 -64 -45 -49 0
-61 7 -69 40 -10 40 -31 61 -67 69 -32 6 -35 10 -35 41 0 29 4 35 31 42 36 9
58 31 71 73 7 21 17 31 34 33 34 5 66 38 73 75 5 25 9 29 16 17 5 -8 10 -29
10 -47z"/>
<path d="M1460 1444 l0 -54 -55 0 -55 0 0 -55 0 -55 -55 0 -55 0 7 -47 c3 -27
6 -49 7 -49 1 -1 22 -4 49 -6 l47 -6 0 54 0 54 155 0 155 0 0 -56 c0 -54 1
-56 23 -50 12 3 37 6 55 6 32 0 32 0 32 50 l0 50 -55 0 -55 0 0 55 0 55 -56 0
-56 0 4 52 3 53 -47 1 -48 1 0 -53z m105 -92 c42 -7 51 -14 25 -22 -31 -10
-153 -12 -174 -4 -21 8 -10 24 16 24 25 0 68 37 68 58 0 8 10 0 23 -19 12 -19
32 -35 42 -37z"/>
<path d="M1808 1493 l-38 -4 0 -50 0 -49 50 0 50 0 0 -55 0 -55 55 0 55 0 0
-105 0 -105 -56 0 -55 0 2 53 c3 57 9 54 -71 49 l-30 -2 0 -80 0 -80 54 0 55
0 -6 -55 -6 -55 113 0 112 0 -4 55 -3 55 55 0 55 0 -3 85 -3 84 -52 -2 -51 -2
3 53 2 52 -55 0 -56 0 0 55 0 55 -56 0 -55 0 2 52 c3 58 3 58 -63 51z m240
-294 c5 -33 29 -58 66 -67 27 -7 31 -13 31 -43 0 -29 -4 -35 -25 -37 -31 -5
-70 -40 -70 -63 0 -29 -29 -49 -70 -49 -46 0 -70 21 -70 61 0 26 3 29 34 29
55 0 76 35 76 127 0 55 3 74 13 71 6 -3 14 -15 15 -29z m-214 -111 c7 -34 3
-44 -13 -33 -13 7 -15 65 -2 65 5 0 11 -14 15 -32z"/>
</g>
</svg>
