<?xml version="1.0" encoding="UTF-8"?>
<!-- Generator: https://ezgif.com/png-to-svg -->
<svg version="1.1" xmlns="http://www.w3.org/2000/svg" width="906" height="716">
transform="translate(0,0)"/>
<path d="M0 0 C20.79 0 41.58 0 63 0 C63 18.15 63 36.3 63 55 C68.94 55 74.88 55 81 55 C81 70.84 81 86.68 81 103 C297.15 103.33 513.3 103.66 736 104 C736 140.3 736 176.6 736 214 C725.77 214 715.54 214 705 214 C705 249.97 705 285.94 705 323 C699.39 323 693.78 323 688 323 C688 342.47 688 361.94 688 382 C678.43 382 668.86 382 659 382 C659 401.47 659 420.94 659 441 C648.11 441 637.22 441 626 441 C626 457.5 626 474 626 491 C481.46 491 336.92 491 188 491 C188 511.13 188 531.26 188 552 C329.9 552 471.8 552 618 552 C618 552.66 618 553.32 618 554 C620.64 554 623.28 554 626 554 C626 571.49 626 588.98 626 607 C621.38 607.01 616.76 607.03 612 607.04 C596.77 607.09 581.54 607.16 566.31 607.24 C557.07 607.28 547.83 607.32 538.59 607.35 C530.54 607.37 522.49 607.4 514.44 607.45 C510.18 607.47 505.92 607.49 501.65 607.5 C497.64 607.5 493.63 607.52 489.62 607.55 C488.14 607.56 486.67 607.57 485.2 607.57 C483.19 607.56 481.18 607.58 479.17 607.6 C478.04 607.61 476.92 607.61 475.76 607.62 C472.98 607.71 472.98 607.71 471.56 609.5 C469.01 611.95 466.38 611.37 462.93 611.37 C462.21 611.38 461.49 611.38 460.74 611.39 C458.31 611.4 455.88 611.38 453.44 611.37 C451.7 611.37 449.96 611.38 448.22 611.38 C443.49 611.39 438.75 611.38 434.02 611.37 C429.07 611.36 424.13 611.36 419.18 611.36 C410.87 611.37 402.57 611.35 394.26 611.34 C384.65 611.32 375.03 611.31 365.42 611.32 C356.18 611.32 346.95 611.32 337.71 611.31 C333.77 611.3 329.84 611.3 325.9 611.3 C321.27 611.31 316.64 611.3 312 611.28 C310.3 611.28 308.6 611.28 306.89 611.28 C304.58 611.28 302.26 611.27 299.94 611.26 C298.64 611.26 297.34 611.26 296 611.25 C293 611 293 611 291 609 C288.38 608.81 285.87 608.74 283.25 608.76 C282.45 608.76 281.65 608.75 280.83 608.75 C278.17 608.75 275.51 608.76 272.85 608.77 C271 608.77 269.15 608.77 267.3 608.77 C263.4 608.77 259.51 608.78 255.62 608.79 C250.66 608.81 245.7 608.82 240.74 608.81 C236.91 608.81 233.08 608.82 229.24 608.83 C227.42 608.83 225.59 608.83 223.76 608.83 C207.94 607.85 207.94 607.85 193 611 C191.44 611.1 189.87 611.13 188.31 611.13 C186.85 611.13 186.85 611.13 185.35 611.14 C184.3 611.14 183.24 611.13 182.16 611.13 C180.54 611.13 180.54 611.13 178.88 611.14 C176.6 611.14 174.31 611.13 172.02 611.13 C168.51 611.13 165.01 611.13 161.5 611.14 C159.28 611.14 157.06 611.13 154.84 611.13 C153.79 611.13 152.73 611.14 151.65 611.14 C150.67 611.14 149.7 611.13 148.69 611.13 C147.83 611.13 146.97 611.13 146.09 611.13 C144 611 144 611 142 610 C142 591.52 142 573.04 142 554 C136.72 554 131.44 554 126 554 C126 533.54 126 513.08 126 492 C120.72 491.67 115.44 491.34 110 491 C110 473.84 110 456.68 110 439 C105.71 439 101.42 439 97 439 C97 420.52 97 402.04 97 383 C92.05 383 87.1 383 82 383 C82 362.87 82 342.74 82 322 C76.06 322 70.12 322 64 322 C64 302.86 64 283.72 64 264 C59.05 264 54.1 264 49 264 C48.67 247.5 48.34 231 48 214 C43.38 213.67 38.76 213.34 34 213 C34 194.52 34 176.04 34 157 C28.72 157 23.44 157 18 157 C18 140.17 18 123.34 18 106 C12.72 106 7.44 106 2 106 C2 89.83 2 73.66 2 57 C0.68 57 -0.64 57 -2 57 C-1.84 56.45 -1.68 55.9 -1.51 55.33 C-0.94 52.73 -0.84 50.35 -0.79 47.68 C-0.77 46.61 -0.75 45.53 -0.73 44.42 C-0.72 43.3 -0.7 42.17 -0.68 41.02 C-0.66 39.98 -0.65 38.94 -0.63 37.87 C-0.56 34 -0.5 30.12 -0.44 26.25 C-0.29 17.59 -0.15 8.93 0 0 Z " fill="blakc" transform="translate(144,15)"/>
<path d="M0 0 C5.61 0 11.22 0 17 0 C17 16.17 17 32.34 17 49 C21.95 49 26.9 49 32 49 C32 66.49 32 83.98 32 102 C37.61 102 43.22 102 49 102 C49.33 113.22 49.66 124.44 50 136 C54.82 138.14 54.82 138.14 59 137 C60.49 136.91 61.97 136.87 63.46 136.87 C64.34 136.87 65.21 136.86 66.11 136.86 C67.05 136.86 67.98 136.87 68.95 136.87 C69.91 136.87 70.88 136.87 71.87 136.86 C73.91 136.86 75.95 136.87 77.99 136.87 C81.12 136.87 84.25 136.87 87.38 136.86 C89.36 136.86 91.34 136.87 93.32 136.87 C94.26 136.87 95.2 136.86 96.17 136.86 C97.04 136.86 97.9 136.87 98.8 136.87 C99.95 136.87 99.95 136.87 101.12 136.87 C103 137 103 137 105 138 C105 146.58 105 155.16 105 164 C113.25 164 121.5 164 130 164 C130 183.47 130 202.94 130 223 C148.81 223 167.62 223 187 223 C187 244.45 187 265.9 187 288 C178.09 288 169.18 288 160 288 C160 307.8 160 327.6 160 348 C173.37 348.5 173.37 348.5 187 349 C187 362.53 187 376.06 187 390 C225.28 390 263.56 390 303 390 C303 376.14 303 362.28 303 348 C321.48 348 339.96 348 359 348 C358.99 343.75 358.98 339.51 358.96 335.13 C358.96 331.75 358.95 328.37 358.95 324.99 C358.94 321.42 358.94 317.85 358.92 314.28 C358.91 310.19 358.91 306.1 358.9 302 C358.9 300.72 358.89 299.43 358.89 298.11 C358.89 296.34 358.89 296.34 358.89 294.53 C358.88 293.48 358.88 292.44 358.88 291.36 C359 289 359 289 360 288 C361.78 287.91 363.56 287.88 365.35 287.89 C367.08 287.89 367.08 287.89 368.85 287.89 C370.08 287.89 371.3 287.9 372.57 287.9 C373.69 287.9 374.81 287.9 375.96 287.91 C380.16 287.91 384.36 287.92 388.56 287.94 C397.95 287.96 407.33 287.98 417 288 C417 307.8 417 327.6 417 348 C419.31 348 421.62 348 424 348 C423.67 349.32 423.34 350.64 423 352 C423.66 352 424.32 352 425 352 C425 352.66 425 353.32 425 354 C425.66 354 426.32 354 427 354 C427 354.66 427 355.32 427 356 C427.66 356 428.32 356 429 356 C429 356.66 429 357.32 429 358 C430.32 358 431.64 358 433 358 C433 359.98 433 361.96 433 364 C434.98 364 436.96 364 439 364 C439.33 365.32 439.66 366.64 440 368 C440.55 367.02 440.55 367.02 441.11 366.02 C443 364 443 364 445.92 363.61 C447 363.66 448.08 363.7 449.19 363.75 C450.27 363.79 451.36 363.82 452.48 363.86 C453.31 363.91 454.14 363.95 455 364 C455 364.66 455 365.32 455 366 C455.66 366 456.32 366 457 366 C457 367.32 457 368.64 457 370 C457.66 370 458.32 370 459 370 C459 370.66 459 371.32 459 372 C460.32 372 461.64 372 463 372 C463 372.66 463 373.32 463 374 C464.98 374 466.96 374 469 374 C469.33 375.65 469.66 377.3 470 379 C470.99 379.33 471.98 379.66 473 380 C473.12 386.75 473.12 386.75 472 389 C472.66 389 473.32 389 474 389 C474 375.47 474 361.94 474 348 C492.81 348 511.62 348 531 348 C531 328.2 531 308.4 531 288 C549.81 288 568.62 288 588 288 C588 266.55 588 245.1 588 223 C606.81 223 625.62 223 645 223 C645 203.53 645 184.06 645 164 C653.25 164 661.5 164 670 164 C670 146.18 670 128.36 670 110 C680.89 110 691.78 110 703 110 C703 103.07 703 96.14 703 89 C713.56 88.67 724.12 88.34 735 88 C735.33 76.12 735.66 64.24 736 52 C522.82 52 309.64 52 90 52 C90 51.67 90 51.34 90 51 C303.51 51 517.02 51 737 51 C737 87.3 737 123.6 737 161 C726.77 161 716.54 161 706 161 C706 196.97 706 232.94 706 270 C700.39 270 694.78 270 689 270 C689 289.47 689 308.94 689 329 C679.43 329 669.86 329 660 329 C660 348.47 660 367.94 660 388 C649.11 388 638.22 388 627 388 C627 404.5 627 421 627 438 C482.46 438 337.92 438 189 438 C189 458.13 189 478.26 189 499 C330.9 499 472.8 499 619 499 C619 499.66 619 500.32 619 501 C621.64 501 624.28 501 627 501 C627 518.49 627 535.98 627 554 C622.38 554.01 617.76 554.03 613 554.04 C597.77 554.09 582.54 554.16 567.31 554.24 C558.07 554.28 548.83 554.32 539.59 554.35 C531.54 554.37 523.49 554.4 515.44 554.45 C511.18 554.47 506.92 554.49 502.65 554.5 C498.64 554.5 494.63 554.52 490.62 554.55 C489.14 554.56 487.67 554.57 486.2 554.57 C484.19 554.56 482.18 554.58 480.17 554.6 C479.04 554.61 477.92 554.61 476.76 554.62 C473.98 554.71 473.98 554.71 472.56 556.5 C470.01 558.95 467.38 558.37 463.93 558.37 C463.21 558.38 462.49 558.38 461.74 558.39 C459.31 558.4 456.88 558.38 454.44 558.37 C452.7 558.37 450.96 558.38 449.22 558.38 C444.49 558.39 439.75 558.38 435.02 558.37 C430.07 558.36 425.13 558.36 420.18 558.36 C411.87 558.37 403.57 558.35 395.26 558.34 C385.65 558.32 376.03 558.31 366.42 558.32 C357.18 558.32 347.95 558.32 338.71 558.31 C334.77 558.3 330.84 558.3 326.9 558.3 C322.27 558.31 317.64 558.3 313 558.28 C311.3 558.28 309.6 558.28 307.89 558.28 C305.58 558.28 303.26 558.27 300.94 558.26 C299.64 558.26 298.34 558.26 297 558.25 C294 558 294 558 292 556 C289.38 555.81 286.87 555.74 284.25 555.76 C283.45 555.76 282.65 555.75 281.83 555.75 C279.17 555.75 276.51 555.76 273.85 555.77 C272 555.77 270.15 555.77 268.3 555.77 C264.4 555.77 260.51 555.78 256.62 555.79 C251.66 555.81 246.7 555.82 241.74 555.81 C237.91 555.81 234.08 555.82 230.24 555.83 C228.42 555.83 226.59 555.83 224.76 555.83 C208.94 554.85 208.94 554.85 194 558 C192.44 558.1 190.87 558.13 189.31 558.13 C187.85 558.13 187.85 558.13 186.35 558.14 C185.3 558.14 184.24 558.13 183.16 558.13 C181.54 558.13 181.54 558.13 179.88 558.14 C177.6 558.14 175.31 558.13 173.02 558.13 C169.51 558.13 166.01 558.13 162.5 558.14 C160.28 558.14 158.06 558.13 155.84 558.13 C154.79 558.13 153.73 558.14 152.65 558.14 C151.67 558.14 150.7 558.13 149.69 558.13 C148.83 558.13 147.97 558.13 147.09 558.13 C145 558 145 558 143 557 C143 538.52 143 520.04 143 501 C137.72 501 132.44 501 127 501 C127 480.54 127 460.08 127 439 C121.72 438.67 116.44 438.34 111 438 C111 420.84 111 403.68 111 386 C106.71 386 102.42 386 98 386 C98 367.52 98 349.04 98 330 C93.05 330 88.1 330 83 330 C83 309.87 83 289.74 83 269 C77.06 269 71.12 269 65 269 C65 249.86 65 230.72 65 211 C60.05 211 55.1 211 50 211 C49.67 194.5 49.34 178 49 161 C44.38 160.67 39.76 160.34 35 160 C35 141.52 35 123.04 35 104 C29.72 104 24.44 104 19 104 C19 87.17 19 70.34 19 53 C13.72 53 8.44 53 3 53 C3 36.83 3 20.66 3 4 C1.68 4 0.36 4 -1 4 C-0.67 2.68 -0.34 1.36 0 0 Z M409 349 C409 349.99 409 350.98 409 352 C409.66 352 410.32 352 411 352 C411 352.66 411 353.32 411 354 C412.98 354 414.96 354 417 354 C417 352.02 417 350.04 417 348 C414.16 348 411.76 348.4 409 349 Z " fill="black" transform="translate(143,68)"/>
<path d="M0 0 C0.33 0 0.66 0 1 0 C1 15.51 1 31.02 1 47 C1.99 46.5 1.99 46.5 3 46 C7.62 46 12.24 46 17 46 C17 63.49 17 80.98 17 99 C25.91 99 34.82 99 44 99 C44 102.3 44 105.6 44 109 C42.02 109.5 42.02 109.5 40 110 C40 113.3 40 116.6 40 120 C39.34 120 38.68 120 38 120 C38.17 121.77 38.39 123.54 38.62 125.31 C38.74 126.3 38.86 127.28 38.98 128.3 C39.97 131.83 39.97 131.83 46 134 C46 140.93 46 147.86 46 155 C50.62 155 55.24 155 60 155 C60.33 170.84 60.66 186.68 61 203 C65.95 203.33 70.9 203.66 76 204 C76 223.14 76 242.28 76 262 C81.94 262 87.88 262 94 262 C94 282.13 94 302.26 94 323 C98.95 323 103.9 323 109 323 C109 341.81 109 360.62 109 380 C113.29 380 117.58 380 122 380 C122 397.16 122 414.32 122 432 C127.28 432 132.56 432 138 432 C138 452.46 138 472.92 138 494 C143.28 494 148.56 494 154 494 C154 512.15 154 530.3 154 549 C261.91 549 369.82 549 481 549 C481 549.33 481 549.66 481 550 C480.31 550.04 479.63 550.07 478.92 550.11 C478.02 550.18 477.12 550.24 476.19 550.31 C475.29 550.37 474.4 550.43 473.48 550.49 C470.95 550.74 470.95 550.74 469.79 552.51 C467 554.83 464.51 554.37 460.93 554.37 C460.21 554.38 459.49 554.38 458.74 554.39 C456.31 554.4 453.88 554.38 451.44 554.37 C449.7 554.37 447.96 554.38 446.22 554.38 C441.49 554.39 436.75 554.38 432.02 554.37 C427.07 554.36 422.13 554.36 417.18 554.36 C408.87 554.37 400.57 554.35 392.26 554.34 C382.65 554.32 373.03 554.31 363.42 554.32 C354.18 554.32 344.95 554.32 335.71 554.31 C331.77 554.3 327.84 554.3 323.9 554.3 C319.27 554.31 314.64 554.3 310 554.28 C308.3 554.28 306.6 554.28 304.89 554.28 C302.58 554.28 300.26 554.27 297.94 554.26 C296.64 554.26 295.34 554.26 294 554.25 C291 554 291 554 289 552 C286.38 551.81 283.87 551.74 281.25 551.76 C280.45 551.76 279.65 551.75 278.83 551.75 C276.17 551.75 273.51 551.76 270.85 551.77 C269 551.77 267.15 551.77 265.3 551.77 C261.4 551.77 257.51 551.78 253.62 551.79 C248.66 551.81 243.7 551.82 238.74 551.81 C234.91 551.81 231.08 551.82 227.24 551.83 C225.42 551.83 223.59 551.83 221.76 551.83 C205.94 550.85 205.94 550.85 191 554 C189.44 554.1 187.87 554.13 186.31 554.13 C184.85 554.13 184.85 554.13 183.35 554.14 C182.3 554.14 181.24 554.13 180.16 554.13 C178.54 554.13 178.54 554.13 176.88 554.14 C174.6 554.14 172.31 554.13 170.02 554.13 C166.51 554.13 163.01 554.13 159.5 554.14 C157.28 554.14 155.06 554.13 152.84 554.13 C151.79 554.13 150.73 554.14 149.65 554.14 C148.67 554.14 147.7 554.13 146.69 554.13 C145.83 554.13 144.97 554.13 144.09 554.13 C142 554 142 554 140 553 C140 534.52 140 516.04 140 497 C134.72 497 129.44 497 124 497 C124 476.54 124 456.08 124 435 C118.72 434.67 113.44 434.34 108 434 C108 416.84 108 399.68 108 382 C103.71 382 99.42 382 95 382 C95 363.52 95 345.04 95 326 C90.05 326 85.1 326 80 326 C80 305.87 80 285.74 80 265 C74.06 265 68.12 265 62 265 C62 245.86 62 226.72 62 207 C57.05 207 52.1 207 47 207 C46.67 190.5 46.34 174 46 157 C41.38 156.67 36.76 156.34 32 156 C32 137.52 32 119.04 32 100 C26.72 100 21.44 100 16 100 C16 83.17 16 66.34 16 49 C10.72 49 5.44 49 0 49 C0 32.83 0 16.66 0 0 Z " fill="#c14bff" transform="translate(146,72)"/>
<path d="M0 0 C1.43 -0.01 1.43 -0.01 2.9 -0.01 C4.41 0 4.41 0 5.96 0.02 C7.06 0.02 8.15 0.02 9.28 0.02 C12.86 0.02 16.44 0.04 20.02 0.07 C22.52 0.07 25.02 0.08 27.51 0.08 C34.06 0.09 40.6 0.12 47.15 0.15 C53.84 0.19 60.53 0.2 67.22 0.21 C80.33 0.25 93.44 0.3 106.55 0.36 C106.6 7.84 106.63 15.31 106.66 22.79 C106.67 25.33 106.68 27.87 106.7 30.41 C106.72 34.07 106.73 37.72 106.74 41.38 C106.75 42.52 106.76 43.65 106.77 44.83 C106.77 45.89 106.77 46.95 106.77 48.04 C106.78 48.97 106.78 49.91 106.79 50.87 C106.53 53.48 105.87 55.11 104.55 57.36 C101.91 57.36 99.27 57.36 96.55 57.36 C96.55 58.02 96.55 58.68 96.55 59.36 C62.89 59.36 29.23 59.36 -5.45 59.36 C-5.45 58.04 -5.45 56.72 -5.45 55.36 C-8.75 55.36 -12.05 55.36 -15.45 55.36 C-15.45 38.2 -15.45 21.04 -15.45 3.36 C-4.2 -0.01 -4.2 -0.01 0 0 Z " fill="black" transform="translate(37.454498291015625,14.639236450195313)"/>
<path d="M0 0 C0.82 -0.01 1.63 -0.01 2.47 -0.02 C5.14 -0.03 7.8 -0.03 10.46 -0.03 C12.33 -0.03 14.19 -0.03 16.05 -0.04 C19.94 -0.05 23.83 -0.05 27.72 -0.04 C32.7 -0.04 37.69 -0.05 42.68 -0.08 C46.52 -0.09 50.36 -0.09 54.2 -0.09 C56.04 -0.09 57.88 -0.09 59.72 -0.1 C62.28 -0.12 64.84 -0.11 67.41 -0.1 C68.17 -0.11 68.93 -0.11 69.71 -0.12 C72.63 -0.09 74.78 -0.06 77.29 1.52 C78.59 3.75 78.68 5.17 78.66 7.75 C78.66 8.65 78.66 9.55 78.65 10.48 C78.64 11.44 78.62 12.41 78.61 13.41 C78.6 14.41 78.6 15.4 78.6 16.43 C78.58 19.6 78.54 22.78 78.5 25.96 C78.49 28.12 78.47 30.27 78.46 32.43 C78.43 37.71 78.38 42.99 78.31 48.27 C77.68 48.46 77.04 48.64 76.38 48.83 C75.56 49.08 74.73 49.33 73.88 49.59 C73.05 49.83 72.23 50.07 71.38 50.33 C70.7 50.64 70.02 50.95 69.31 51.27 C68.98 52.26 68.65 53.25 68.31 54.27 C65.48 55.69 62.84 55.62 59.69 55.84 C58.5 55.92 57.31 56 56.09 56.09 C55.17 56.15 54.26 56.21 53.31 56.27 C53.25 57.19 53.19 58.11 53.13 59.05 C53.01 60.83 53.01 60.83 52.88 62.65 C52.76 64.42 52.76 64.42 52.63 66.24 C52.31 69.27 52.31 69.27 51.31 71.27 C45.47 73.36 39.33 73.57 33.19 73.54 C32.37 73.54 31.54 73.54 30.69 73.55 C28.96 73.55 27.24 73.54 25.51 73.54 C22.86 73.52 20.21 73.54 17.56 73.55 C15.87 73.55 14.19 73.54 12.51 73.54 C11.71 73.54 10.92 73.55 10.1 73.55 C4.54 73.5 4.54 73.5 2.31 71.27 C2.01 68.54 1.8 65.89 1.69 63.15 C1.65 62.4 1.61 61.64 1.57 60.86 C1.48 59 1.4 57.14 1.31 55.27 C0.76 55.25 0.2 55.22 -0.38 55.2 C-2.92 55.08 -5.46 54.96 -8 54.84 C-9.32 54.78 -9.32 54.78 -10.67 54.72 C-11.52 54.68 -12.36 54.63 -13.24 54.59 C-14.02 54.55 -14.8 54.52 -15.6 54.48 C-17.69 54.27 -17.69 54.27 -20.69 53.27 C-20.76 46.49 -20.81 39.71 -20.85 32.93 C-20.86 30.62 -20.89 28.32 -20.91 26.01 C-20.95 22.69 -20.96 19.38 -20.98 16.07 C-20.99 15.03 -21.01 14 -21.02 12.93 C-21.03 11.97 -21.03 11.01 -21.03 10.02 C-21.03 9.18 -21.04 8.33 -21.05 7.46 C-20.59 4.71 -19.81 4.03 -17.69 2.27 C-12.01 0.19 -5.98 -0.02 0 0 Z " fill="#c14bff" transform="translate(359.68505859375,622.725341796875)"/>
<path d="M0 0 C29.7 0 59.4 0 90 0 C90 17.16 90 34.32 90 52 C79.88 53.12 79.88 53.12 75.75 53.1 C74.87 53.09 74 53.09 73.1 53.09 C71.78 53.08 71.78 53.08 70.44 53.06 C69.07 53.06 69.07 53.06 67.67 53.05 C65.45 53.04 63.22 53.02 61 53 C61 58.61 61 64.22 61 70 C55.43 70.02 49.86 70.04 44.29 70.05 C42.4 70.06 40.51 70.07 38.62 70.08 C35.89 70.09 33.16 70.09 30.43 70.1 C29.59 70.1 28.76 70.11 27.89 70.11 C27.09 70.11 26.29 70.11 25.47 70.11 C24.77 70.12 24.08 70.12 23.36 70.12 C20.22 69.96 17.11 69.44 14 69 C13.67 64.05 13.34 59.1 13 54 C11.42 53.87 9.85 53.73 8.22 53.6 C6.17 53.42 4.12 53.24 2.06 53.06 C1.02 52.98 -0.02 52.89 -1.09 52.8 C-2.08 52.71 -3.07 52.62 -4.09 52.54 C-5.01 52.46 -5.92 52.38 -6.87 52.3 C-9 52 -9 52 -10 51 C-10.12 49.6 -10.17 48.2 -10.19 46.8 C-10.21 45.91 -10.22 45.02 -10.24 44.1 C-10.29 40.02 -10.33 35.94 -10.35 31.86 C-10.37 29.71 -10.39 27.55 -10.43 25.4 C-10.49 22.3 -10.51 19.2 -10.52 16.1 C-10.55 15.14 -10.57 14.17 -10.59 13.18 C-10.58 10.68 -10.54 8.43 -10 6 C-5.81 2.3 -2.31 2.73 3 3 C3 2.34 3 1.68 3 1 C2.01 0.67 1.02 0.34 0 0 Z " fill="#c14bff" transform="translate(627,622)"/>
<path d="M0 0 C19.14 0 38.28 0 58 0 C58 18.48 58 36.96 58 56 C38.86 56 19.72 56 0 56 C0 37.52 0 19.04 0 0 Z " fill="#c14bff" transform="translate(388,176)"/>
<path d="M0 0 C18.81 0 37.62 0 57 0 C57 18.48 57 36.96 57 56 C38.19 56 19.38 56 0 56 C0 37.52 0 19.04 0 0 Z " fill="#c14bff" transform="translate(560,176)"/>
<path d="M0 0 C18.81 0 37.62 0 57 0 C57 18.48 57 36.96 57 56 C38.19 56 19.38 56 0 56 C0 37.52 0 19.04 0 0 Z " fill="#c14bff" transform="translate(273,176)"/>
<path d="M0 0 C18.81 0 37.62 0 57 0 C57 18.15 57 36.3 57 55 C38.19 55 19.38 55 0 55 C0 36.85 0 18.7 0 0 Z " fill="#c14bff" transform="translate(731,177)"/>
<path d="M0 0 C144.54 0 289.08 0 438 0 C438 0.33 438 0.66 438 1 C436.14 1.19 436.14 1.19 434.25 1.38 C431.12 1.76 428.71 2.31 426 4 C426 4.66 426 5.32 426 6 C285.42 6 144.84 6 0 6 C0 4.02 0 2.04 0 0 Z " fill="#c14bff" transform="translate(332,506)"/>
<path d="M0 0 C10.56 0 21.12 0 32 0 C32 0.33 32 0.66 32 1 C28.7 1.66 25.4 2.32 22 3 C22 3.99 22 4.98 22 6 C15.73 6 9.46 6 3 6 C3.01 8.99 3.02 11.97 3.04 15.05 C3.04 17.94 3.05 20.83 3.05 23.72 C3.06 25.73 3.07 27.74 3.08 29.75 C3.09 32.64 3.09 35.53 3.1 38.42 C3.1 39.32 3.11 40.22 3.11 41.14 C3.11 42.4 3.11 42.4 3.11 43.69 C3.12 44.43 3.12 45.16 3.12 45.92 C2.99 48.1 2.7 49.94 2 52 C0 53.23 0 53.23 -2.44 54.19 C-3.24 54.51 -4.04 54.83 -4.87 55.17 C-5.57 55.44 -6.28 55.72 -7 56 C-7.66 56.33 -8.32 56.66 -9 57 C-11.3 57.1 -13.61 57.12 -15.91 57.12 C-16.64 57.12 -17.36 57.13 -18.11 57.13 C-20.55 57.13 -23 57.12 -25.45 57.12 C-27.21 57.12 -28.98 57.12 -30.74 57.12 C-35.6 57.13 -40.47 57.12 -45.33 57.12 C-50.57 57.11 -55.81 57.11 -61.05 57.11 C-70.13 57.11 -79.21 57.11 -88.29 57.11 C-101.42 57.1 -114.55 57.09 -127.68 57.09 C-148.98 57.09 -170.28 57.08 -191.58 57.08 C-212.28 57.07 -232.98 57.06 -253.68 57.05 C-254.95 57.05 -256.23 57.05 -257.54 57.05 C-263.93 57.05 -270.33 57.05 -276.73 57.05 C-329.82 57.04 -382.91 57.02 -436 57 C-436 74.16 -436 91.32 -436 109 C-427.94 109 -427.94 109 -419.72 108.99 C-370.47 108.97 -321.22 108.96 -271.97 108.95 C-265.52 108.95 -259.07 108.95 -252.61 108.95 C-251.33 108.94 -250.04 108.94 -248.72 108.94 C-227.91 108.94 -207.1 108.93 -186.29 108.92 C-164.94 108.91 -143.59 108.91 -122.25 108.91 C-109.07 108.9 -95.89 108.9 -82.72 108.89 C-73.69 108.89 -64.66 108.89 -55.63 108.89 C-50.41 108.89 -45.2 108.89 -39.99 108.88 C-35.22 108.88 -30.45 108.88 -25.67 108.88 C-23.95 108.88 -22.22 108.88 -20.49 108.88 C-18.14 108.87 -15.8 108.87 -13.45 108.88 C-12.15 108.88 -10.85 108.88 -9.5 108.88 C-6.22 108.99 -3.2 109.24 0 110 C1.29 112.57 1.12 114.4 1.11 117.28 C1.11 118.38 1.11 119.48 1.11 120.61 C1.11 121.8 1.1 123 1.1 124.23 C1.1 126.05 1.1 126.05 1.09 127.92 C1.09 131.82 1.08 135.72 1.06 139.62 C1.06 142.27 1.05 144.91 1.05 147.55 C1.04 154.03 1.02 160.52 1 167 C1.66 167 2.32 167 3 167 C3.33 168.65 3.66 170.3 4 172 C-6.71 174.1 -17.21 174.07 -28.06 173.69 C-29.09 173.65 -29.09 173.65 -30.13 173.62 C-48.55 172.97 -48.55 172.97 -53 170 C-53 168.68 -53 167.36 -53 166 C-35.51 166 -18.02 166 0 166 C0 148.51 0 131.02 0 113 C-2.64 113 -5.28 113 -8 113 C-8 112.34 -8 111.68 -8 111 C-149.9 111 -291.8 111 -438 111 C-438 92.85 -438 74.7 -438 56 C-297.42 56 -156.84 56 -12 56 C-12 55.34 -12 54.68 -12 54 C-10.5 52.38 -10.5 52.38 -8 51 C-5.36 51 -2.72 51 0 51 C0 34.17 0 17.34 0 0 Z " fill="#c14bff" transform="translate(770,456)"/>
<path d="M0 0 C5.61 0 11.22 0 17 0 C17 16.17 17 32.34 17 49 C21.95 49 26.9 49 32 49 C32 66.49 32 83.98 32 102 C37.61 102 43.22 102 49 102 C49 113.88 49 125.76 49 138 C43 136 43 136 41.62 134.38 C40.7 130.86 40.88 127.63 41 124 C41.66 124 42.32 124 43 124 C43 120.7 43 117.4 43 114 C43.66 114 44.32 114 45 114 C45 112.35 45 110.7 45 109 C45.33 109 45.66 109 46 109 C46.33 107.02 46.66 105.04 47 103 C38.09 103 29.18 103 20 103 C20 85.51 20 68.02 20 50 C12.08 50.5 12.08 50.5 4 51 C4 35.49 4 19.98 4 4 C2.35 4 0.7 4 -1 4 C-0.67 2.68 -0.34 1.36 0 0 Z " fill="#c14bff" transform="translate(143,68)"/>
<path d="M0 0 C0 17.16 0 34.32 0 52 C35.64 52 71.28 52 108 52 C108.33 52.99 108.66 53.98 109 55 C108.5 55.99 108.5 55.99 108 57 C105.36 57 102.72 57 100 57 C100 57.66 100 58.32 100 59 C66.34 59 32.68 59 -2 59 C-2 57.68 -2 56.36 -2 55 C-5.3 55 -8.6 55 -12 55 C-12 37.84 -12 20.68 -12 3 C-2 0 -2 0 0 0 Z " fill="#" transform="translate(34,15)"/>
<path d="M0 0 C0 16.83 0 33.66 0 51 C6.93 51 13.86 51 21 51 C21 57.27 21 63.54 21 70 C32.55 69.67 44.1 69.34 56 69 C56 62.4 56 55.8 56 49 C65.06 48.11 73.91 47.89 83 48 C83 48.33 83 48.66 83 49 C82.43 49.11 81.87 49.22 81.29 49.33 C80.55 49.49 79.82 49.65 79.06 49.81 C78.33 49.96 77.6 50.11 76.85 50.27 C76.24 50.51 75.63 50.75 75 51 C74.67 51.99 74.34 52.98 74 54 C71.17 55.42 68.53 55.35 65.38 55.56 C64.19 55.65 63 55.73 61.77 55.82 C60.86 55.88 59.94 55.94 59 56 C58.94 56.92 58.88 57.83 58.82 58.77 C58.69 60.56 58.69 60.56 58.56 62.38 C58.44 64.15 58.44 64.15 58.32 65.96 C58 69 58 69 57 71 C51.15 73.09 45.02 73.3 38.88 73.27 C38.05 73.27 37.23 73.27 36.38 73.27 C34.65 73.27 32.92 73.27 31.2 73.26 C28.54 73.25 25.89 73.26 23.24 73.27 C21.56 73.27 19.88 73.27 18.19 73.27 C17.4 73.27 16.61 73.27 15.79 73.28 C10.23 73.23 10.23 73.23 8 71 C7.69 68.27 7.49 65.62 7.38 62.88 C7.34 62.12 7.3 61.37 7.26 60.59 C7.16 58.73 7.08 56.86 7 55 C6.44 54.97 5.88 54.95 5.3 54.92 C2.76 54.81 0.23 54.69 -2.31 54.56 C-3.63 54.5 -3.63 54.5 -4.98 54.44 C-5.83 54.4 -6.68 54.36 -7.55 54.32 C-8.33 54.28 -9.11 54.24 -9.92 54.21 C-12 54 -12 54 -15 53 C-15.08 46.22 -15.13 39.44 -15.16 32.66 C-15.18 30.35 -15.2 28.04 -15.23 25.73 C-15.26 22.42 -15.28 19.11 -15.29 15.79 C-15.31 14.76 -15.32 13.72 -15.34 12.66 C-15.34 11.7 -15.34 10.74 -15.34 9.75 C-15.35 8.9 -15.35 8.05 -15.36 7.18 C-14.92 4.5 -14.13 3.65 -12 2 C-9.84 1.27 -9.84 1.27 -7.5 0.81 C-6.73 0.65 -5.95 0.5 -5.16 0.33 C-3 0 -3 0 0 0 Z " fill="black" transform="translate(354,623)"/>
<path d="M0 0 C0.33 15.84 0.66 31.68 1 48 C8.26 48.33 15.52 48.66 23 49 C23 54.94 23 60.88 23 67 C19.04 66.67 15.08 66.34 11 66 C10.67 61.05 10.34 56.1 10 51 C8.42 50.87 6.85 50.73 5.22 50.6 C3.17 50.42 1.12 50.24 -0.94 50.06 C-1.98 49.98 -3.02 49.89 -4.09 49.8 C-5.08 49.71 -6.07 49.62 -7.09 49.54 C-8.01 49.46 -8.92 49.38 -9.87 49.3 C-12 49 -12 49 -13 48 C-13.12 46.6 -13.17 45.2 -13.19 43.8 C-13.21 42.91 -13.22 42.02 -13.24 41.1 C-13.29 37.02 -13.33 32.94 -13.35 28.86 C-13.37 26.71 -13.39 24.55 -13.43 22.4 C-13.49 19.3 -13.51 16.2 -13.52 13.1 C-13.55 12.14 -13.57 11.17 -13.59 10.18 C-13.57 3.6 -13.57 3.6 -10.97 0.87 C-8 0 -8 0 0 0 Z " fill="black" transform="translate(630,625)"/>
<path d="M0 0 C0 0.66 0 1.32 0 2 C-0.78 2.13 -1.56 2.27 -2.37 2.4 C-3.38 2.58 -4.39 2.76 -5.44 2.94 C-6.45 3.11 -7.46 3.29 -8.5 3.46 C-10.93 3.75 -10.93 3.75 -12 5 C-12.09 6.41 -12.12 7.83 -12.11 9.24 C-12.11 10.15 -12.11 11.05 -12.11 11.97 C-12.11 12.95 -12.1 13.93 -12.1 14.94 C-12.1 15.94 -12.09 16.94 -12.09 17.96 C-12.09 21.16 -12.08 24.36 -12.06 27.56 C-12.06 29.73 -12.05 31.89 -12.05 34.05 C-12.04 39.37 -12.02 44.68 -12 50 C-11.34 50.06 -10.68 50.11 -10 50.17 C-7.02 50.42 -4.04 50.68 -1.06 50.94 C-0.02 51.02 1.02 51.11 2.09 51.2 C3.08 51.29 4.07 51.38 5.09 51.46 C6.01 51.54 6.92 51.62 7.87 51.7 C10 52 10 52 11 53 C11 57.95 11 62.9 11 68 C34.26 68.5 34.26 68.5 58 69 C58 63.39 58 57.78 58 52 C72.36 51.5 72.36 51.5 87 51 C87 35.16 87 19.32 87 3 C89.44 5.44 89.25 6.07 89.26 9.42 C89.27 10.33 89.27 11.25 89.28 12.19 C89.27 13.18 89.27 14.17 89.27 15.19 C89.27 16.2 89.27 17.21 89.27 18.26 C89.27 20.4 89.27 22.55 89.26 24.69 C89.25 27.99 89.26 31.28 89.27 34.57 C89.27 36.65 89.27 38.73 89.27 40.81 C89.27 41.8 89.27 42.79 89.28 43.81 C89.27 45.18 89.27 45.18 89.26 46.58 C89.26 47.39 89.26 48.2 89.25 49.03 C89 51 89 51 87 53 C84.31 53.27 81.71 53.09 79 53 C79 53.66 79 54.32 79 55 C70.59 55.5 70.59 55.5 62 56 C62 61.61 62 67.22 62 73 C58.74 73.82 56.48 74.13 53.2 74.15 C52.26 74.15 51.31 74.16 50.33 74.16 C49.31 74.17 48.3 74.17 47.25 74.17 C45.67 74.17 45.67 74.17 44.07 74.18 C41.85 74.18 39.63 74.19 37.41 74.19 C34.01 74.19 30.62 74.21 27.22 74.22 C25.06 74.23 22.91 74.23 20.75 74.23 C19.73 74.24 18.72 74.24 17.67 74.25 C16.72 74.25 15.77 74.25 14.8 74.24 C13.97 74.24 13.13 74.25 12.28 74.25 C9.75 73.97 8.15 73.35 6 72 C4.5 69 4.91 66.21 4.94 62.88 C4.95 61.59 4.96 60.31 4.96 58.99 C4.98 58 4.99 57.02 5 56 C4.29 56.01 3.57 56.02 2.84 56.04 C-8.43 56.14 -8.43 56.14 -13 55 C-15.67 52.18 -16.38 50.23 -16.39 46.39 C-16.4 45.48 -16.41 44.57 -16.42 43.64 C-16.41 42.66 -16.4 41.69 -16.4 40.69 C-16.4 39.68 -16.4 38.68 -16.41 37.64 C-16.41 35.51 -16.4 33.39 -16.39 31.26 C-16.38 28.01 -16.39 24.76 -16.41 21.51 C-16.41 19.44 -16.4 17.38 -16.4 15.31 C-16.4 14.34 -16.41 13.37 -16.42 12.36 C-16.41 11.46 -16.4 10.55 -16.39 9.61 C-16.39 8.82 -16.38 8.02 -16.38 7.2 C-15.9 4.44 -14.88 3.05 -13 1 C-10.88 0.39 -10.88 0.39 -8.56 0.25 C-7.8 0.19 -7.04 0.14 -6.25 0.08 C-4.17 0.01 -2.08 0 0 0 Z " fill="black" transform="translate(630,623)"/>
<path d="M0 0 C29.7 0 59.4 0 90 0 C90 17.16 90 34.32 90 52 C86.7 52 83.4 52 80 52 C80.5 51.01 80.5 51.01 81 50 C82.65 49.67 84.3 49.34 86 49 C86 34.81 86 20.62 86 6 C77.52 6.02 77.52 6.02 68.86 6.04 C65.28 6.04 61.7 6.05 58.11 6.05 C52.43 6.05 46.74 6.06 41.05 6.08 C36.47 6.09 31.89 6.09 27.3 6.09 C25.55 6.1 23.8 6.1 22.05 6.11 C19.6 6.11 17.16 6.11 14.71 6.11 C13.62 6.12 13.62 6.12 12.51 6.12 C9.2 6.12 6.17 6.03 3 5 C3 3.68 3 2.36 3 1 C2.01 0.67 1.02 0.34 0 0 Z " fill="black" transform="translate(627,622)"/>
<path d="M0 0 C10.23 0 20.46 0 31 0 C31 0.33 31 0.66 31 1 C29.36 1.43 29.36 1.43 27.69 1.88 C23.96 2.82 23.96 2.82 21 5 C19.02 5.3 19.02 5.3 16.8 5.38 C16.01 5.41 15.21 5.45 14.39 5.48 C13.56 5.51 12.73 5.54 11.88 5.56 C6.51 5.27 6.51 5.27 2 7 C1.9 8.33 1.86 9.67 1.86 11.01 C1.84 12.31 1.84 12.31 1.83 13.63 C1.83 15.06 1.83 15.06 1.83 16.52 C1.82 17.52 1.81 18.52 1.81 19.55 C1.79 21.73 1.78 23.91 1.77 26.09 C1.75 29.53 1.73 32.98 1.71 36.43 C1.63 46.22 1.57 56.02 1.52 65.82 C1.49 71.81 1.45 77.79 1.4 83.78 C1.39 86.07 1.37 88.35 1.37 90.64 C1.35 93.83 1.33 97.03 1.3 100.22 C1.3 101.17 1.3 102.12 1.3 103.1 C1.29 103.97 1.28 104.84 1.27 105.74 C1.27 106.49 1.26 107.25 1.26 108.03 C1 110 1 110 -1 113 C-3.57 113.7 -3.57 113.7 -6.56 114.12 C-10.09 114.38 -10.09 114.38 -13 116 C-13.12 117.61 -13.17 119.23 -13.19 120.84 C-13.21 122.39 -13.21 122.39 -13.24 123.96 C-13.25 125.09 -13.27 126.21 -13.28 127.37 C-13.3 128.51 -13.32 129.66 -13.34 130.84 C-13.4 134.52 -13.45 138.2 -13.5 141.88 C-13.57 146.71 -13.64 151.54 -13.72 156.37 C-13.73 157.49 -13.75 158.6 -13.76 159.76 C-13.78 160.8 -13.79 161.83 -13.81 162.9 C-13.83 164.27 -13.83 164.27 -13.85 165.67 C-14 168 -14 168 -15 171 C-23.03 172.54 -30.9 173.35 -39.04 173.75 C-41.89 173.67 -41.89 173.67 -43 175 C-43.15 176.56 -43.24 178.13 -43.3 179.7 C-43.34 180.7 -43.38 181.71 -43.42 182.74 C-43.48 184.37 -43.48 184.37 -43.54 186.04 C-43.58 187.14 -43.62 188.25 -43.67 189.39 C-43.8 192.95 -43.93 196.51 -44.06 200.06 C-44.15 202.47 -44.25 204.87 -44.34 207.28 C-44.56 213.18 -44.78 219.09 -45 225 C-45.33 225 -45.66 225 -46 225 C-46 206.19 -46 187.38 -46 168 C-36.43 168 -26.86 168 -17 168 C-17 148.53 -17 129.06 -17 109 C-11.39 109 -5.78 109 0 109 C0 73.03 0 37.06 0 0 Z " fill="#c14bff" transform="translate(849,229)"/>
<path d="M0 0 C37.95 0 75.9 0 115 0 C115 0.66 115 1.32 115 2 C114.18 2 114.18 2 113.34 2.01 C99.99 2.09 86.63 2.18 73.27 2.29 C66.81 2.34 60.36 2.38 53.9 2.42 C47.66 2.46 41.42 2.51 35.18 2.56 C32.81 2.58 30.43 2.59 28.06 2.6 C24.72 2.62 21.39 2.65 18.05 2.68 C16.59 2.68 16.59 2.68 15.1 2.69 C14.18 2.7 13.25 2.71 12.3 2.72 C11.12 2.73 11.12 2.73 9.92 2.74 C5.56 3.13 1.29 4.14 -3 5 C-3 22.16 -3 39.32 -3 57 C0.3 57 3.6 57 7 57 C7 58.32 7 59.64 7 61 C40.66 61 74.32 61 109 61 C109 61.33 109 61.66 109 62 C95.3 62.05 81.6 62.08 67.9 62.1 C61.54 62.11 55.18 62.13 48.82 62.15 C42.68 62.17 36.54 62.18 30.4 62.19 C28.05 62.19 25.71 62.2 23.37 62.21 C20.09 62.23 16.81 62.23 13.53 62.23 C12.56 62.23 11.59 62.24 10.6 62.25 C5.36 62.23 0.9 61.94 -4 60 C-6.19 56.71 -6.25 55.75 -6.24 51.93 C-6.25 50.9 -6.25 49.87 -6.25 48.81 C-6.25 47.7 -6.24 46.58 -6.23 45.44 C-6.23 44.29 -6.23 43.15 -6.23 41.97 C-6.23 39.56 -6.22 37.14 -6.21 34.72 C-6.19 31.01 -6.19 27.31 -6.19 23.6 C-6.18 21.26 -6.17 18.91 -6.17 16.56 C-6.17 15.45 -6.17 14.34 -6.16 13.19 C-6.16 12.16 -6.15 11.13 -6.15 10.07 C-6.14 9.16 -6.14 8.25 -6.13 7.31 C-6 5 -6 5 -5 2 C-3.35 2 -1.7 2 0 2 C0 1.34 0 0.68 0 0 Z " fill="black" transform="translate(25,13)"/>
<path d="M0 0 C0 0.66 0 1.32 0 2 C-1.07 2.31 -1.07 2.31 -2.15 2.62 C-3.53 3.03 -3.53 3.03 -4.94 3.44 C-6.31 3.84 -6.31 3.84 -7.71 4.25 C-9.94 4.79 -9.94 4.79 -11 6 C-11.12 7.41 -11.18 8.83 -11.21 10.24 C-11.23 11.15 -11.25 12.05 -11.27 12.97 C-11.28 13.95 -11.3 14.93 -11.32 15.94 C-11.34 16.94 -11.36 17.94 -11.38 18.96 C-11.44 22.16 -11.5 25.36 -11.56 28.56 C-11.61 30.73 -11.65 32.89 -11.69 35.05 C-11.8 40.37 -11.9 45.68 -12 51 C-11.4 51.02 -10.81 51.04 -10.2 51.06 C-7.51 51.16 -4.82 51.26 -2.12 51.38 C-1.19 51.41 -0.25 51.44 0.71 51.47 C1.61 51.51 2.51 51.55 3.43 51.59 C4.26 51.62 5.08 51.65 5.94 51.68 C8 52 8 52 10 54 C10.33 58.95 10.66 63.9 11 69 C25.85 69 40.7 69 56 69 C56 62.4 56 55.8 56 49 C65.06 48.11 73.91 47.89 83 48 C83 48.33 83 48.66 83 49 C82.43 49.11 81.87 49.22 81.29 49.33 C80.55 49.49 79.82 49.65 79.06 49.81 C78.33 49.96 77.6 50.11 76.85 50.27 C76.24 50.51 75.63 50.75 75 51 C74.67 51.99 74.34 52.98 74 54 C71.17 55.42 68.53 55.35 65.38 55.56 C64.19 55.65 63 55.73 61.77 55.82 C60.86 55.88 59.94 55.94 59 56 C58.94 56.92 58.88 57.83 58.82 58.77 C58.69 60.56 58.69 60.56 58.56 62.38 C58.44 64.15 58.44 64.15 58.32 65.96 C58 69 58 69 57 71 C51.15 73.09 45.02 73.3 38.88 73.27 C38.05 73.27 37.23 73.27 36.38 73.27 C34.65 73.27 32.92 73.27 31.2 73.26 C28.54 73.25 25.89 73.26 23.24 73.27 C21.56 73.27 19.88 73.27 18.19 73.27 C17.4 73.27 16.61 73.27 15.79 73.28 C10.23 73.23 10.23 73.23 8 71 C7.69 68.27 7.49 65.62 7.38 62.88 C7.34 62.12 7.3 61.37 7.26 60.59 C7.16 58.73 7.08 56.86 7 55 C6.44 54.97 5.88 54.95 5.3 54.92 C2.76 54.81 0.23 54.69 -2.31 54.56 C-3.63 54.5 -3.63 54.5 -4.98 54.44 C-5.83 54.4 -6.68 54.36 -7.55 54.32 C-8.33 54.28 -9.11 54.24 -9.92 54.21 C-12 54 -12 54 -15 53 C-15.08 46.22 -15.13 39.44 -15.16 32.66 C-15.18 30.35 -15.2 28.04 -15.23 25.73 C-15.26 22.42 -15.28 19.11 -15.29 15.79 C-15.31 14.76 -15.32 13.72 -15.34 12.66 C-15.34 11.7 -15.34 10.74 -15.34 9.75 C-15.35 8.9 -15.35 8.05 -15.36 7.18 C-14.92 4.5 -14.13 3.65 -12 2 C-9.84 1.27 -9.84 1.27 -7.5 0.81 C-6.73 0.65 -5.95 0.5 -5.16 0.33 C-3 0 -3 0 0 0 Z " fill="black" transform="translate(354,623)"/>
<path d="M0 0 C0.33 0 0.66 0 1 0 C1.01 0.6 1.02 1.2 1.03 1.82 C1.14 8.03 1.25 14.24 1.37 20.45 C1.42 22.77 1.46 25.1 1.5 27.42 C1.55 30.75 1.62 34.07 1.68 37.4 C1.71 38.97 1.71 38.97 1.73 40.57 C1.75 41.53 1.77 42.49 1.79 43.48 C1.82 44.76 1.82 44.76 1.84 46.06 C1.79 48.01 1.79 48.01 3 49 C4.33 49.14 5.66 49.23 7 49.28 C7.8 49.32 8.61 49.36 9.44 49.39 C10.28 49.43 11.13 49.46 12 49.5 C13.67 49.57 15.33 49.64 17 49.72 C17.74 49.75 18.49 49.78 19.25 49.81 C21 50 21 50 22 51 C22.33 55.95 22.66 60.9 23 66 C39.5 66 56 66 73 66 C73.33 61.05 73.66 56.1 74 51 C75 50 75 50 77.94 49.9 C79.14 49.91 80.33 49.93 81.56 49.94 C83.36 49.95 83.36 49.95 85.19 49.96 C86.12 49.98 87.05 49.99 88 50 C88 50.33 88 50.66 88 51 C84.37 51.33 80.74 51.66 77 52 C77 57.61 77 63.22 77 69 C73.74 69.82 71.48 70.13 68.2 70.15 C67.26 70.15 66.31 70.16 65.33 70.16 C64.31 70.17 63.3 70.17 62.25 70.17 C60.67 70.17 60.67 70.17 59.07 70.18 C56.85 70.18 54.63 70.19 52.41 70.19 C49.01 70.19 45.62 70.21 42.22 70.22 C40.06 70.23 37.91 70.23 35.75 70.23 C34.73 70.24 33.72 70.24 32.67 70.25 C31.72 70.25 30.77 70.25 29.8 70.24 C28.97 70.24 28.13 70.25 27.28 70.25 C24.75 69.97 23.15 69.35 21 68 C19.5 65 19.91 62.21 19.94 58.88 C19.95 57.59 19.96 56.31 19.96 54.99 C19.98 54 19.99 53.02 20 52 C19.29 52.01 18.57 52.02 17.84 52.04 C6.57 52.14 6.57 52.14 2 51 C-0.7 48.16 -1.37 46.21 -1.36 42.34 C-1.36 41.42 -1.36 40.5 -1.37 39.56 C-1.35 38.58 -1.34 37.59 -1.33 36.58 C-1.33 35.57 -1.32 34.56 -1.32 33.51 C-1.32 31.37 -1.3 29.24 -1.28 27.1 C-1.25 23.81 -1.24 20.53 -1.23 17.24 C-1.23 15.17 -1.21 13.09 -1.2 11.02 C-1.2 10.03 -1.19 9.04 -1.19 8.02 C-1.18 7.12 -1.17 6.21 -1.16 5.27 C-1.15 4.47 -1.15 3.67 -1.14 2.84 C-1 1 -1 1 0 0 Z " fill="black" transform="translate(615,627)"/>
<path d="M0 0 C29.7 0 59.4 0 90 0 C90 17.16 90 34.32 90 52 C86.7 52 83.4 52 80 52 C80 51.67 80 51.34 80 51 C82.64 50.67 85.28 50.34 88 50 C87.88 43.63 87.76 37.26 87.63 30.88 C87.58 28.71 87.54 26.55 87.5 24.38 C87.45 21.26 87.38 18.15 87.32 15.04 C87.3 14.07 87.28 13.09 87.27 12.09 C87.24 10.74 87.24 10.74 87.21 9.36 C87.18 8.17 87.18 8.17 87.16 6.95 C87.12 4.92 87.12 4.92 86 3 C84.97 2.99 83.93 2.98 82.87 2.98 C73.14 2.9 63.42 2.81 53.69 2.71 C48.69 2.66 43.69 2.62 38.69 2.58 C33.86 2.54 29.04 2.49 24.22 2.44 C22.37 2.42 20.53 2.41 18.69 2.4 C16.11 2.38 13.54 2.35 10.96 2.32 C10.19 2.32 9.43 2.31 8.64 2.31 C4.89 2.25 3.2 2.13 0 0 Z " fill="black" transform="translate(627,622)"/>
<path d="M0 0 C10.51 -0.07 21.02 -0.12 31.53 -0.16 C36.41 -0.17 41.29 -0.19 46.17 -0.23 C50.87 -0.26 55.58 -0.28 60.29 -0.28 C62.09 -0.29 63.88 -0.3 65.68 -0.32 C68.2 -0.34 70.71 -0.34 73.22 -0.34 C73.97 -0.35 74.72 -0.36 75.49 -0.37 C78.37 -0.36 80.49 -0.32 82.96 1.24 C84.28 3.47 84.36 4.89 84.34 7.47 C84.34 8.37 84.34 9.27 84.34 10.2 C84.32 11.17 84.31 12.14 84.29 13.14 C84.29 14.13 84.28 15.13 84.28 16.15 C84.26 19.33 84.23 22.51 84.19 25.69 C84.17 27.84 84.16 30 84.15 32.15 C84.11 37.43 84.06 42.72 84 48 C81.69 48 79.38 48 77 48 C77.5 47.01 77.5 47.01 78 46 C79.32 46 80.64 46 82 46 C81.67 31.81 81.34 17.62 81 3 C54.27 2.67 27.54 2.34 0 2 C0 1.34 0 0.68 0 0 Z " fill="black" transform="translate(354,623)"/>
<path d="M0 0 C10.23 0 20.46 0 31 0 C31 0.33 31 0.66 31 1 C29.36 1.43 29.36 1.43 27.69 1.88 C23.96 2.82 23.96 2.82 21 5 C19.02 5.3 19.02 5.3 16.8 5.38 C16.01 5.41 15.21 5.45 14.39 5.48 C13.56 5.51 12.73 5.54 11.88 5.56 C6.51 5.27 6.51 5.27 2 7 C1.89 8.34 1.85 9.69 1.84 11.03 C1.83 12.33 1.83 12.33 1.81 13.66 C1.81 14.62 1.8 15.58 1.79 16.57 C1.78 18.08 1.78 18.08 1.76 19.61 C1.73 22.95 1.71 26.29 1.68 29.63 C1.66 31.94 1.64 34.24 1.62 36.55 C1.57 42.64 1.52 48.73 1.47 54.82 C1.42 61.02 1.36 67.23 1.31 73.44 C1.2 85.62 1.1 97.81 1 110 C-4.94 110 -10.88 110 -17 110 C-17 109.67 -17 109.34 -17 109 C-11.39 109 -5.78 109 0 109 C0 73.03 0 37.06 0 0 Z " fill="#115280" transform="translate(849,229)"/>
<path d="M0 0 C0.33 0.66 0.66 1.32 1 2 C1.66 2 2.32 2 3 2 C3.13 8.32 3.21 14.63 3.27 20.95 C3.3 23.1 3.33 25.25 3.38 27.4 C3.44 30.49 3.47 33.58 3.49 36.67 C3.51 37.63 3.54 38.58 3.57 39.57 C3.57 44.23 3.54 46.3 0.62 50.09 C-1.99 51.99 -3.6 52.76 -6.75 53.25 C-9.66 53.54 -9.66 53.54 -12 55 C-13.85 55.23 -15.7 55.41 -17.56 55.56 C-19.36 55.71 -21.15 55.85 -23 56 C-23.66 60.29 -24.32 64.58 -25 69 C-25.66 69 -26.32 69 -27 69 C-26.86 66.52 -26.71 64.04 -26.56 61.56 C-26.52 60.86 -26.48 60.15 -26.44 59.42 C-26.11 54.11 -26.11 54.11 -25 53 C-22.47 52.76 -19.97 52.58 -17.44 52.44 C-16.37 52.37 -16.37 52.37 -15.28 52.31 C-13.52 52.2 -11.76 52.1 -10 52 C-9.67 50.68 -9.34 49.36 -9 48 C-6.36 47.34 -3.72 46.68 -1 46 C-0.67 30.82 -0.34 15.64 0 0 Z " fill="black" transform="translate(438,625)"/>
<path d="M0 0 C36.3 0 72.6 0 110 0 C110 17.49 110 34.98 110 53 C109.34 53 108.68 53 108 53 C107.67 36.17 107.34 19.34 107 2 C71.69 1.67 36.38 1.34 0 1 C0 0.67 0 0.34 0 0 Z " fill="black" transform="translate(34,15)"/>
<path d="M0 0 C0.86 -0 1.72 -0 2.6 -0 C5.45 0 8.29 0.01 11.14 0.02 C13.11 0.02 15.08 0.02 17.05 0.02 C22.24 0.02 27.43 0.03 32.63 0.04 C37.92 0.06 43.22 0.06 48.51 0.06 C58.91 0.08 69.3 0.09 79.69 0.11 C79.69 1.76 79.69 3.41 79.69 5.11 C78.7 4.45 77.71 3.79 76.69 3.11 C73.79 2.93 70.99 2.86 68.09 2.89 C67.21 2.89 66.34 2.89 65.43 2.89 C62.53 2.89 59.62 2.9 56.71 2.92 C54.7 2.92 52.69 2.92 50.67 2.93 C45.37 2.93 40.07 2.95 34.77 2.98 C29.36 3 23.95 3.01 18.54 3.02 C7.93 3.04 -2.69 3.07 -13.31 3.11 C-8.65 0.01 -5.47 -0.02 0 0 Z " fill="black" transform="translate(358.30517578125,620.886474609375)"/>
<path d="M0 0 C10.56 0 21.12 0 32 0 C32 0.33 32 0.66 32 1 C28.7 1.66 25.4 2.32 22 3 C22 3.66 22 4.32 22 5 C15.4 5 8.8 5 2 5 C1.67 19.85 1.34 34.7 1 50 C0.67 50 0.34 50 0 50 C0 33.5 0 17 0 0 Z " fill="blac" transform="translate(770,456)"/>
<path d="M0 0 C16.83 0 33.66 0 51 0 C51 0.33 51 0.66 51 1 C48.95 1.23 46.9 1.46 44.85 1.68 C42.99 1.82 42.99 1.82 42 3 C37.07 3.89 32.32 4.12 27.32 4.1 C26.62 4.1 25.92 4.09 25.19 4.09 C22.98 4.09 20.77 4.08 18.56 4.06 C17.05 4.06 15.54 4.05 14.03 4.05 C10.36 4.04 6.68 4.02 3 4 C2.67 3.01 2.34 2.02 2 1 C1.34 0.67 0.68 0.34 0 0 Z " fill="black" transform="translate(717,622)"/>
<path d="M0 0 C2.31 0 4.62 0 7 0 C0.62 4.25 0.62 4.25 -3.27 4.24 C-4.14 4.24 -5.01 4.25 -5.91 4.25 C-6.86 4.24 -7.81 4.23 -8.8 4.23 C-10.3 4.23 -10.3 4.23 -11.84 4.23 C-15.17 4.23 -18.5 4.21 -21.82 4.2 C-24.13 4.19 -26.43 4.19 -28.74 4.19 C-34.81 4.18 -40.88 4.16 -46.95 4.14 C-53.15 4.12 -59.34 4.11 -65.53 4.1 C-77.69 4.08 -89.84 4.04 -102 4 C-102 3.67 -102 3.34 -102 3 C-68.34 3 -34.68 3 0 3 C0 2.01 0 1.02 0 0 Z " fill="black" transform="translate(134,72)"/>
<path d="M0 0 C0 0.33 0 0.66 0 1 C-1.64 1.43 -1.64 1.43 -3.31 1.88 C-7.04 2.82 -7.04 2.82 -10 5 C-11.96 5.3 -11.96 5.3 -14.16 5.38 C-14.95 5.41 -15.75 5.45 -16.56 5.48 C-17.39 5.51 -18.21 5.54 -19.06 5.56 C-20.7 5.62 -22.34 5.69 -23.97 5.75 C-24.7 5.78 -25.42 5.8 -26.17 5.83 C-28.1 5.9 -28.1 5.9 -30 7 C-30 5.02 -30 3.04 -30 1 C-26.88 0.83 -23.75 0.66 -20.62 0.5 C-19.75 0.45 -18.88 0.4 -17.99 0.36 C-11.99 0.04 -6.01 -0.06 0 0 Z " fill="black" transform="translate(880,229)"/>
<path d="M0 0 C8.25 0 16.5 0 25 0 C22.03 2.97 19.35 3.14 15.33 3.32 C13.99 3.38 13.99 3.38 12.63 3.44 C11.23 3.5 11.23 3.5 9.81 3.56 C8.87 3.61 7.93 3.65 6.96 3.69 C4.64 3.8 2.32 3.9 0 4 C0 2.68 0 1.36 0 0 Z " fill="black" transform="translate(770,456)"/>
<path d="M0 0 C0 0.33 0 0.66 0 1 C-5.63 2.53 -11.08 3.48 -16.88 4.06 C-22.1 4.42 -22.1 4.42 -27 6 C-27 4.35 -27 2.7 -27 1 C-17.96 0.06 -9.07 -0.11 0 0 Z " fill="black" transform="translate(437,671)"/>
<path d="M0 0 C0.66 0.33 1.32 0.66 2 1 C1.67 2.32 1.34 3.64 1 5 C-1.31 5 -3.62 5 -6 5 C-4.01 2.01 -3.23 1.21 0 0 Z " fill="blac" transform="translate(141,67)"/>
</svg>